<svg width="32" height="30" viewBox="0 0 32 30" fill="none" xmlns="http://www.w3.org/2000/svg">
<path d="M16.0325 18.2969H13.3763C12.8637 18.2969 12.4163 18.7131 12.4163 19.2569V20.8894C12.4163 21.4019 12.8325 21.8494 13.3763 21.8494H16.0325C16.545 21.8494 16.9925 21.4331 16.9925 20.8894V19.2569C16.9925 18.7444 16.5438 18.2969 16.0325 18.2969Z" fill="#00A3FF"/>
<path d="M9.18364 18.2969H6.52738C6.01487 18.2969 5.56738 18.7131 5.56738 19.2569V20.8894C5.56738 21.4019 5.98364 21.8494 6.52738 21.8494H9.18364C9.69615 21.8494 10.1436 21.4331 10.1436 20.8894V19.2569C10.1436 18.7444 9.69615 18.2969 9.18364 18.2969Z" fill="#00A3FF"/>
<path d="M16.0325 12.3125H13.3763C12.8637 12.3125 12.4163 12.7288 12.4163 13.2725V14.905C12.4163 15.4175 12.8325 15.865 13.3763 15.865H16.0325C16.545 15.865 16.9925 15.4488 16.9925 14.905V13.2725C16.9925 12.76 16.5438 12.3125 16.0325 12.3125Z" fill="#00A3FF"/>
<path d="M9.18364 12.3125H6.52738C6.01487 12.3125 5.56738 12.7288 5.56738 13.2725V14.905C5.56738 15.4175 5.98364 15.865 6.52738 15.865H9.18364C9.69615 15.865 10.1436 15.4488 10.1436 14.905V13.2725C10.1436 12.76 9.69615 12.3125 9.18364 12.3125Z" fill="#00A3FF"/>
<path d="M22.8799 12.3125H20.2237C19.7112 12.3125 19.2637 12.7288 19.2637 13.2725V14.905C19.2637 15.4175 19.6799 15.865 20.2237 15.865H22.8799C23.3924 15.865 23.8399 15.4488 23.8399 14.905V13.2725C23.8399 12.76 23.3924 12.3125 22.8799 12.3125Z" fill="#00A3FF"/>
<path d="M28.6073 18.5838V5.88009C28.6073 5.04757 28.2873 4.3126 27.7748 3.73634V3.70384H27.7423C27.1348 3.03133 26.2698 2.61636 25.3098 2.61636H22.9098L22.9123 1.17636C22.9123 0.568867 22.4323 0.0888672 21.8248 0.0888672H20.1923C19.5848 0.0888672 19.1048 0.568867 19.1048 1.17636V2.61636H10.2722V1.17636C10.2722 0.568867 9.79219 0.0888672 9.18471 0.0888672H7.55219C6.94471 0.0888672 6.46471 0.568867 6.46471 1.17636V2.61636H4.06471C3.10471 2.61636 2.24096 3.03261 1.63219 3.70384V3.73634C1.11968 4.3126 0.799683 5.04885 0.799683 5.88009V23.3201C0.799683 25.1126 2.27219 26.5838 4.06336 26.5838H19.3907C20.447 28.5675 22.527 29.9111 24.927 29.9111C28.3834 29.9111 31.1997 27.0949 31.1997 23.6385C31.1997 21.5597 30.1759 19.7034 28.6072 18.5834L28.6073 18.5838ZM18.656 23.6401C18.656 23.8963 18.6885 24.1526 18.7197 24.4076H4.06342C3.45593 24.4076 2.97593 23.9276 2.97593 23.3201V10.0074H26.3996V17.5601C25.9196 17.4326 25.4396 17.3676 24.9271 17.3676C21.4721 17.3676 18.6557 20.1838 18.6557 23.6402L18.656 23.6401ZM27.5197 23.0001L24.9272 25.7838C24.7672 25.9438 24.5434 26.0401 24.3197 26.0401C24.0959 26.0401 23.8722 25.9438 23.7122 25.7838L22.1759 24.1201C21.8559 23.8001 21.8884 23.2876 22.2084 22.9676C22.5284 22.6476 23.0409 22.6801 23.3609 23.0001L24.3209 24.0238L26.3047 21.8801C26.6247 21.5601 27.1372 21.5276 27.4572 21.8476C27.8072 22.1676 27.8397 22.6801 27.5197 23.0001H27.5197Z" fill="#00A3FF"/>
</svg>
