<svg width="98" height="98" viewBox="0 0 98 98" fill="none" xmlns="http://www.w3.org/2000/svg">
<path opacity="0.2" fill-rule="evenodd" clip-rule="evenodd" d="M5.29397 2.64698C5.29397 4.10887 4.10887 5.29397 2.64698 5.29397C1.1851 5.29397 0 4.10887 0 2.64698C0 1.1851 1.1851 0 2.64698 0C4.10887 0 5.29397 1.1851 5.29397 2.64698ZM5.29397 18.098C5.29397 19.5599 4.10887 20.745 2.64698 20.745C1.1851 20.745 0 19.5599 0 18.098C0 16.6361 1.1851 15.451 2.64698 15.451C4.10887 15.451 5.29397 16.6361 5.29397 18.098ZM2.64698 36.196C4.10887 36.196 5.29397 35.0109 5.29397 33.549C5.29397 32.0871 4.10887 30.902 2.64698 30.902C1.1851 30.902 0 32.0871 0 33.549C0 35.0109 1.1851 36.196 2.64698 36.196ZM5.29397 49C5.29397 50.4619 4.10887 51.647 2.64698 51.647C1.1851 51.647 0 50.4619 0 49C0 47.5381 1.1851 46.353 2.64698 46.353C4.10887 46.353 5.29397 47.5381 5.29397 49ZM2.64698 67.098C4.10887 67.098 5.29397 65.9129 5.29397 64.451C5.29397 62.9891 4.10887 61.804 2.64698 61.804C1.1851 61.804 0 62.9891 0 64.451C0 65.9129 1.1851 67.098 2.64698 67.098ZM5.29397 79.902C5.29397 81.3639 4.10887 82.549 2.64698 82.549C1.1851 82.549 0 81.3639 0 79.902C0 78.4401 1.1851 77.255 2.64698 77.255C4.10887 77.255 5.29397 78.4401 5.29397 79.902ZM2.64698 98C4.10887 98 5.29397 96.8149 5.29397 95.353C5.29397 93.8911 4.10887 92.706 2.64698 92.706C1.1851 92.706 0 93.8911 0 95.353C0 96.8149 1.1851 98 2.64698 98ZM20.7449 2.64698C20.7449 4.10887 19.5599 5.29397 18.098 5.29397C16.6361 5.29397 15.451 4.10887 15.451 2.64698C15.451 1.1851 16.6361 0 18.098 0C19.5599 0 20.7449 1.1851 20.7449 2.64698ZM18.098 20.745C19.5599 20.745 20.7449 19.5599 20.7449 18.098C20.7449 16.6361 19.5599 15.451 18.098 15.451C16.6361 15.451 15.451 16.6361 15.451 18.098C15.451 19.5599 16.6361 20.745 18.098 20.745ZM20.7449 33.549C20.7449 35.0109 19.5599 36.196 18.098 36.196C16.6361 36.196 15.451 35.0109 15.451 33.549C15.451 32.0871 16.6361 30.902 18.098 30.902C19.5599 30.902 20.7449 32.0871 20.7449 33.549ZM18.098 51.647C19.5599 51.647 20.7449 50.4619 20.7449 49C20.7449 47.5381 19.5599 46.353 18.098 46.353C16.6361 46.353 15.451 47.5381 15.451 49C15.451 50.4619 16.6361 51.647 18.098 51.647ZM20.7449 64.451C20.7449 65.9129 19.5599 67.098 18.098 67.098C16.6361 67.098 15.451 65.9129 15.451 64.451C15.451 62.9891 16.6361 61.804 18.098 61.804C19.5599 61.804 20.7449 62.9891 20.7449 64.451ZM18.098 82.549C19.5599 82.549 20.7449 81.3639 20.7449 79.902C20.7449 78.4401 19.5599 77.255 18.098 77.255C16.6361 77.255 15.451 78.4401 15.451 79.902C15.451 81.3639 16.6361 82.549 18.098 82.549ZM20.7449 95.353C20.7449 96.8149 19.5599 98 18.098 98C16.6361 98 15.451 96.8149 15.451 95.353C15.451 93.8911 16.6361 92.706 18.098 92.706C19.5599 92.706 20.7449 93.8911 20.7449 95.353ZM33.549 5.29397C35.0109 5.29397 36.196 4.10887 36.196 2.64698C36.196 1.1851 35.0109 0 33.549 0C32.0871 0 30.902 1.1851 30.902 2.64698C30.902 4.10887 32.0871 5.29397 33.549 5.29397ZM36.196 18.098C36.196 19.5599 35.0109 20.745 33.549 20.745C32.0871 20.745 30.902 19.5599 30.902 18.098C30.902 16.6361 32.0871 15.451 33.549 15.451C35.0109 15.451 36.196 16.6361 36.196 18.098ZM33.549 36.196C35.0109 36.196 36.196 35.0109 36.196 33.549C36.196 32.0871 35.0109 30.902 33.549 30.902C32.0871 30.902 30.902 32.0871 30.902 33.549C30.902 35.0109 32.0871 36.196 33.549 36.196ZM36.196 49C36.196 50.4619 35.0109 51.647 33.549 51.647C32.0871 51.647 30.902 50.4619 30.902 49C30.902 47.5381 32.0871 46.353 33.549 46.353C35.0109 46.353 36.196 47.5381 36.196 49ZM33.549 67.098C35.0109 67.098 36.196 65.9129 36.196 64.451C36.196 62.9891 35.0109 61.804 33.549 61.804C32.0871 61.804 30.902 62.9891 30.902 64.451C30.902 65.9129 32.0871 67.098 33.549 67.098ZM36.196 79.902C36.196 81.3639 35.0109 82.549 33.549 82.549C32.0871 82.549 30.902 81.3639 30.902 79.902C30.902 78.4401 32.0871 77.255 33.549 77.255C35.0109 77.255 36.196 78.4401 36.196 79.902ZM33.549 98C35.0109 98 36.196 96.8149 36.196 95.353C36.196 93.8911 35.0109 92.706 33.549 92.706C32.0871 92.706 30.902 93.8911 30.902 95.353C30.902 96.8149 32.0871 98 33.549 98ZM51.647 2.64698C51.647 4.10887 50.4619 5.29397 49 5.29397C47.5381 5.29397 46.353 4.10887 46.353 2.64698C46.353 1.1851 47.5381 0 49 0C50.4619 0 51.647 1.1851 51.647 2.64698ZM49 20.745C50.4619 20.745 51.647 19.5599 51.647 18.098C51.647 16.6361 50.4619 15.451 49 15.451C47.5381 15.451 46.353 16.6361 46.353 18.098C46.353 19.5599 47.5381 20.745 49 20.745ZM51.647 33.549C51.647 35.0109 50.4619 36.196 49 36.196C47.5381 36.196 46.353 35.0109 46.353 33.549C46.353 32.0871 47.5381 30.902 49 30.902C50.4619 30.902 51.647 32.0871 51.647 33.549ZM49 51.647C50.4619 51.647 51.647 50.4619 51.647 49C51.647 47.5381 50.4619 46.353 49 46.353C47.5381 46.353 46.353 47.5381 46.353 49C46.353 50.4619 47.5381 51.647 49 51.647ZM51.647 64.451C51.647 65.9129 50.4619 67.098 49 67.098C47.5381 67.098 46.353 65.9129 46.353 64.451C46.353 62.9891 47.5381 61.804 49 61.804C50.4619 61.804 51.647 62.9891 51.647 64.451ZM49 82.549C50.4619 82.549 51.647 81.3639 51.647 79.902C51.647 78.4401 50.4619 77.255 49 77.255C47.5381 77.255 46.353 78.4401 46.353 79.902C46.353 81.3639 47.5381 82.549 49 82.549ZM51.647 95.353C51.647 96.8149 50.4619 98 49 98C47.5381 98 46.353 96.8149 46.353 95.353C46.353 93.8911 47.5381 92.706 49 92.706C50.4619 92.706 51.647 93.8911 51.647 95.353ZM64.451 5.29397C65.9129 5.29397 67.098 4.10887 67.098 2.64698C67.098 1.1851 65.9129 0 64.451 0C62.9891 0 61.804 1.1851 61.804 2.64698C61.804 4.10887 62.9891 5.29397 64.451 5.29397ZM67.098 18.098C67.098 19.5599 65.9129 20.745 64.451 20.745C62.9891 20.745 61.804 19.5599 61.804 18.098C61.804 16.6361 62.9891 15.451 64.451 15.451C65.9129 15.451 67.098 16.6361 67.098 18.098ZM64.451 36.196C65.9129 36.196 67.098 35.0109 67.098 33.549C67.098 32.0871 65.9129 30.902 64.451 30.902C62.9891 30.902 61.804 32.0871 61.804 33.549C61.804 35.0109 62.9891 36.196 64.451 36.196ZM67.098 49C67.098 50.4619 65.9129 51.647 64.451 51.647C62.9891 51.647 61.804 50.4619 61.804 49C61.804 47.5381 62.9891 46.353 64.451 46.353C65.9129 46.353 67.098 47.5381 67.098 49ZM64.451 67.098C65.9129 67.098 67.098 65.9129 67.098 64.451C67.098 62.9891 65.9129 61.804 64.451 61.804C62.9891 61.804 61.804 62.9891 61.804 64.451C61.804 65.9129 62.9891 67.098 64.451 67.098ZM67.098 79.902C67.098 81.3639 65.9129 82.549 64.451 82.549C62.9891 82.549 61.804 81.3639 61.804 79.902C61.804 78.4401 62.9891 77.255 64.451 77.255C65.9129 77.255 67.098 78.4401 67.098 79.902ZM64.451 98C65.9129 98 67.098 96.8149 67.098 95.353C67.098 93.8911 65.9129 92.706 64.451 92.706C62.9891 92.706 61.804 93.8911 61.804 95.353C61.804 96.8149 62.9891 98 64.451 98ZM82.549 2.64698C82.549 4.10887 81.3639 5.29397 79.902 5.29397C78.4401 5.29397 77.255 4.10887 77.255 2.64698C77.255 1.1851 78.4401 0 79.902 0C81.3639 0 82.549 1.1851 82.549 2.64698ZM79.902 20.745C81.3639 20.745 82.549 19.5599 82.549 18.098C82.549 16.6361 81.3639 15.451 79.902 15.451C78.4401 15.451 77.255 16.6361 77.255 18.098C77.255 19.5599 78.4401 20.745 79.902 20.745ZM82.549 33.549C82.549 35.0109 81.3639 36.196 79.902 36.196C78.4401 36.196 77.255 35.0109 77.255 33.549C77.255 32.0871 78.4401 30.902 79.902 30.902C81.3639 30.902 82.549 32.0871 82.549 33.549ZM79.902 51.647C81.3639 51.647 82.549 50.4619 82.549 49C82.549 47.5381 81.3639 46.353 79.902 46.353C78.4401 46.353 77.255 47.5381 77.255 49C77.255 50.4619 78.4401 51.647 79.902 51.647ZM82.549 64.451C82.549 65.9129 81.3639 67.098 79.902 67.098C78.4401 67.098 77.255 65.9129 77.255 64.451C77.255 62.9891 78.4401 61.804 79.902 61.804C81.3639 61.804 82.549 62.9891 82.549 64.451ZM79.902 82.549C81.3639 82.549 82.549 81.3639 82.549 79.902C82.549 78.4401 81.3639 77.255 79.902 77.255C78.4401 77.255 77.255 78.4401 77.255 79.902C77.255 81.3639 78.4401 82.549 79.902 82.549ZM82.549 95.353C82.549 96.8149 81.3639 98 79.902 98C78.4401 98 77.255 96.8149 77.255 95.353C77.255 93.8911 78.4401 92.706 79.902 92.706C81.3639 92.706 82.549 93.8911 82.549 95.353ZM95.353 5.29397C96.8149 5.29397 98 4.10887 98 2.64698C98 1.1851 96.8149 0 95.353 0C93.8911 0 92.706 1.1851 92.706 2.64698C92.706 4.10887 93.8911 5.29397 95.353 5.29397ZM98 18.098C98 19.5599 96.8149 20.745 95.353 20.745C93.8911 20.745 92.706 19.5599 92.706 18.098C92.706 16.6361 93.8911 15.451 95.353 15.451C96.8149 15.451 98 16.6361 98 18.098ZM95.353 36.196C96.8149 36.196 98 35.0109 98 33.549C98 32.0871 96.8149 30.902 95.353 30.902C93.8911 30.902 92.706 32.0871 92.706 33.549C92.706 35.0109 93.8911 36.196 95.353 36.196ZM98 49C98 50.4619 96.8149 51.647 95.353 51.647C93.8911 51.647 92.706 50.4619 92.706 49C92.706 47.5381 93.8911 46.353 95.353 46.353C96.8149 46.353 98 47.5381 98 49ZM95.353 67.098C96.8149 67.098 98 65.9129 98 64.451C98 62.9891 96.8149 61.804 95.353 61.804C93.8911 61.804 92.706 62.9891 92.706 64.451C92.706 65.9129 93.8911 67.098 95.353 67.098ZM98 79.902C98 81.3639 96.8149 82.549 95.353 82.549C93.8911 82.549 92.706 81.3639 92.706 79.902C92.706 78.4401 93.8911 77.255 95.353 77.255C96.8149 77.255 98 78.4401 98 79.902ZM95.353 98C96.8149 98 98 96.8149 98 95.353C98 93.8911 96.8149 92.706 95.353 92.706C93.8911 92.706 92.706 93.8911 92.706 95.353C92.706 96.8149 93.8911 98 95.353 98Z" fill="#282774"/>
</svg>
