<svg width="28" height="32" viewBox="0 0 28 32" fill="none" xmlns="http://www.w3.org/2000/svg">
<path d="M14 0.039978C12.1208 0.039978 10.58 1.58076 10.58 3.45998C10.58 4.53317 11.0832 5.4921 11.8625 6.11998H8.94123L9.07185 6.98683L11.6012 24.3601H8.28807L9.43992 12.2715L9.51117 11.4402H6.88682C7.51918 10.8821 7.91996 10.0642 7.91996 9.16024C7.91996 7.49033 6.54987 6.12024 4.87996 6.12024C3.21005 6.12024 1.83996 7.49033 1.83996 9.16024C1.83996 10.0642 2.24075 10.8821 2.8731 11.4402H0.248749L0.319999 12.2715L1.75685 27.4001H0.319999V31.9601H27.68V27.4001H26.2431L27.68 12.2715L27.7512 11.4402H25.1269C25.7592 10.8821 26.16 10.0642 26.16 9.16024C26.16 7.49033 24.7899 6.12024 23.12 6.12024C21.4501 6.12024 20.08 7.49033 20.08 9.16024C20.08 10.0642 20.4808 10.8821 21.1132 11.4402H18.4888L18.5601 12.2715L19.7119 24.3601H16.3988L18.9281 6.98683L19.0588 6.11998H16.1375C16.9168 5.4921 17.42 4.53317 17.42 3.45998C17.42 1.58076 15.8792 0.039978 14 0.039978H14ZM14 1.55998C15.0584 1.55998 15.9 2.4016 15.9 3.45998C15.9 4.51835 15.0584 5.35998 14 5.35998C12.9416 5.35998 12.1 4.51835 12.1 3.45998C12.1 2.4016 12.9416 1.55998 14 1.55998ZM4.87998 7.63998C5.72905 7.63998 6.39998 8.31091 6.39998 9.15998C6.39998 10.0091 5.72905 10.68 4.87998 10.68C4.03091 10.68 3.35998 10.0091 3.35998 9.15998C3.35998 8.31091 4.03091 7.63998 4.87998 7.63998ZM10.6985 7.63998H17.301L14.8667 24.36H13.1329L10.6985 7.63998ZM23.12 7.63998C23.9691 7.63998 24.64 8.31091 24.64 9.15998C24.64 10.0091 23.9691 10.68 23.12 10.68C22.2709 10.68 21.6 10.0091 21.6 9.15998C21.6 8.31091 22.2709 7.63998 23.12 7.63998ZM1.9232 12.96H7.83676L6.47112 27.4H3.28862L1.9232 12.96ZM20.1632 12.96H26.0768L24.7111 27.4H21.5286L20.1632 12.96ZM9.43998 25.88H18.56V30.44H9.43998V25.88ZM1.83998 28.92H7.91998V30.44H1.83998V28.92ZM20.08 28.92H26.16V30.44H20.08V28.92Z" fill="#C4C4C4"/>
</svg>
