<svg width="31" height="32" viewBox="0 0 31 32" fill="none" xmlns="http://www.w3.org/2000/svg">
<path d="M29.8703 0.15475C29.3331 -0.16005 28.6419 0.0204647 28.3293 0.559811L21.5226 12.2075C20.8754 11.7474 20.1819 11.349 19.44 11.0364L24.8973 1.69815C25.2121 1.16101 25.0294 0.469754 24.4923 0.157146C23.9573 -0.157654 23.2639 0.0228607 22.9513 0.562207L17.2142 10.3761C16.5648 10.255 15.8978 10.1846 15.2131 10.1846C14.9864 10.1846 14.764 10.2044 14.5395 10.2198L19.5191 1.70041C19.8339 1.16327 19.6511 0.472014 19.114 0.159406C18.5769 -0.155394 17.8856 0.0251201 17.573 0.564466L15.2527 4.53583L12.8466 0.551279C12.5252 0.0185381 11.8317 -0.153174 11.299 0.168231C10.7662 0.489636 10.5945 1.18309 10.9159 1.71583L13.9583 6.75047L12.6088 9.05978L7.4685 0.54886C7.1471 0.0161195 6.45144 -0.155592 5.9209 0.165813C5.38816 0.487218 5.21645 1.18068 5.53786 1.71341L11.1383 10.9812C10.3435 11.3026 9.59725 11.7165 8.90604 12.2096L2.09934 0.561885C1.78454 0.0247428 1.09552 -0.155755 0.558336 0.156825C0.0211932 0.471625 -0.159304 1.16064 0.153275 1.69783L7.18653 13.7327C5.40556 15.6743 4.30707 18.2544 4.30707 21.0923C4.30707 27.1088 9.20082 32 15.2148 32C21.2288 32 26.1226 27.1063 26.1226 21.0923C26.1226 18.2546 25.0241 15.6746 23.2409 13.731L30.2741 1.69783C30.5889 1.16069 30.4084 0.469432 29.8691 0.154627L29.8703 0.15475ZM23.8695 21.09C23.8695 25.8626 19.9862 29.7435 15.216 29.7435C10.4433 29.7435 6.56246 25.8602 6.56246 21.09C6.56246 16.3173 10.4457 12.4365 15.216 12.4365C19.9862 12.4365 23.8695 16.3197 23.8695 21.09ZM15.2137 14.4551C11.6144 14.4551 8.68427 17.4314 8.68427 21.0922C8.68427 21.7152 9.18839 22.2193 9.81139 22.2193C10.4344 22.2193 10.9385 21.7152 10.9385 21.0922C10.9385 18.6772 12.8559 16.7092 15.2136 16.7092C15.8367 16.7092 16.3408 16.2051 16.3408 15.5821C16.3408 14.9591 15.8366 14.455 15.2136 14.455L15.2137 14.4551Z" fill="white"/>
</svg>
