<svg width="34" height="28" viewBox="0 0 34 28" fill="none" xmlns="http://www.w3.org/2000/svg">
<path d="M26.9188 5.29883H13.96C13.3307 5.29883 12.82 5.80795 12.82 6.43883V12.3288C12.82 12.9582 13.3307 13.4688 13.96 13.4688H26.9188C27.5481 13.4688 28.0588 12.9582 28.0588 12.3288V6.43883C28.0588 5.80795 27.5481 5.29883 26.9188 5.29883ZM25.7788 11.2276L15.1 11.2261V7.57898H25.7788V11.2276Z" fill="#FF9900"/>
<path d="M33.6444 3.55013C33.6444 1.66198 32.1125 0.130127 30.2244 0.130127H10.6544C8.76476 0.130127 7.23438 1.66198 7.23438 3.55013V5.79152H3.77577C1.88763 5.79152 0.355774 7.32337 0.355774 9.21152V23.3103C0.355774 25.8293 2.39827 27.8703 4.91577 27.8703H28.2102C31.2115 27.8703 33.6445 25.4374 33.6445 22.4359L33.6444 3.55013ZM7.23438 23.3101C7.23438 24.5793 6.20424 25.6094 4.93508 25.6094C3.66592 25.6094 2.63577 24.5793 2.63577 23.3101V9.21137C2.63577 8.58201 3.14642 8.07137 3.77577 8.07137H7.23438V23.3101ZM31.4031 22.4358H31.4017C31.4017 24.1785 29.99 25.5901 28.2488 25.5901H8.86884C9.26814 24.8969 9.47744 24.1102 9.47596 23.3101V3.55013C9.47596 2.92077 9.98661 2.41013 10.616 2.41013H30.2247C30.8541 2.41013 31.3647 2.92077 31.3647 3.55013L31.4031 22.4358Z" fill="#FF9900"/>
<path d="M26.9188 15.7488H13.96C13.3307 15.7488 12.82 16.2579 12.82 16.8888C12.82 17.5181 13.3307 18.0288 13.96 18.0288H26.9188C27.5481 18.0288 28.0588 17.5181 28.0588 16.8888C28.0588 16.2579 27.5481 15.7488 26.9188 15.7488Z" fill="#FF9900"/>
<path d="M26.9188 20.3088H13.96C13.3307 20.3088 12.82 20.818 12.82 21.4488C12.82 22.0782 13.3307 22.5888 13.96 22.5888H26.9188C27.5481 22.5888 28.0588 22.0782 28.0588 21.4488C28.0588 20.818 27.5481 20.3088 26.9188 20.3088Z" fill="#FF9900"/>
</svg>
