<svg width="48" height="48" viewBox="0 0 48 48" fill="none" xmlns="http://www.w3.org/2000/svg">
<path d="M29.8604 34.6278C29.8454 34.1778 29.8079 33.7278 29.7442 33.2815C29.7404 33.259 29.7404 33.2347 29.7348 33.2103C29.7067 33.0378 29.6785 32.869 29.641 32.6947C29.5567 32.2878 29.4535 31.8884 29.3223 31.4947V31.4909C29.2754 31.3597 29.2285 31.2322 29.176 31.1009C28.8235 30.2234 28.3473 29.4134 27.7416 28.6972C27.7266 28.6784 27.7135 28.6634 27.7004 28.6447C27.6854 28.6259 27.6723 28.6109 27.6591 28.5922C27.5466 28.4647 27.3179 28.2266 27.3179 28.2266L27.1904 28.099C27.1904 28.099 27.031 27.949 26.9523 27.874C26.0935 27.1015 25.096 26.4903 24.0272 26.0366C22.096 25.2153 20.011 24.8459 17.924 24.724C16.0959 24.6172 14.2528 24.6865 12.4453 24.9678C9.57656 25.4178 6.59173 26.539 4.73893 28.8772C3.8108 30.049 3.2108 31.4365 2.9539 32.9084C2.7514 34.0559 2.77578 35.2109 2.77578 36.3734V38.0009C2.77578 38.1472 2.76641 38.2859 2.78516 38.4284C2.84516 38.9309 3.1039 39.3659 3.51264 39.6621C3.96639 39.9903 4.46516 39.9809 4.98452 39.9809H28.1071C28.5665 39.9809 28.9883 39.8121 29.3108 39.5121H29.2958C29.4364 39.3771 29.5583 39.2215 29.6521 39.0434C29.7458 38.8653 29.8114 38.6684 29.8433 38.4622V38.4584C29.8658 38.2615 29.8658 38.0609 29.8658 37.8584V35.1434C29.8696 35.1284 29.8696 35.1153 29.8752 35.1022C29.8696 34.9466 29.8658 34.7853 29.8602 34.6278L29.8604 34.6278Z" fill="#282774"/>
<path d="M45.2502 35.6665C45.2502 35.7077 45.2465 35.7452 45.2352 35.779L45.2371 38.2502C45.2371 38.7283 45.134 39.1784 44.7871 39.5252C44.4833 39.8289 44.084 39.979 43.6583 39.9846C42.7396 39.994 41.8171 39.9846 40.8983 39.9846H31.2964C31.3808 39.8346 31.4502 39.6752 31.5064 39.5158C31.5627 39.3621 31.6002 39.2065 31.6339 39.0471C31.7183 38.6346 31.737 38.209 31.737 37.7815V35.2727C31.7464 35.1939 31.752 35.1133 31.752 35.0346C31.7427 32.8071 31.2458 30.4933 30.0083 28.6069C29.877 28.41 29.7458 28.2169 29.6052 28.0294C29.502 27.8888 29.3952 27.7575 29.2827 27.6225C29.1702 27.4875 29.0577 27.3563 28.9414 27.2288C29.982 26.9757 31.0508 26.8313 32.1195 26.7638C33.8633 26.6569 35.6352 26.73 37.3544 27.0488C38.8394 27.3263 40.3263 27.8138 41.6069 28.6294C42.7094 29.3325 43.6507 30.2832 44.2732 31.4419C44.9651 32.7413 45.2425 34.2038 45.2501 35.6663L45.2502 35.6665Z" fill="#282774"/>
<path d="M40.0815 18.4723C40.0815 18.4817 40.0721 18.4873 40.0721 18.4948C40.0721 18.4986 40.0684 18.4986 40.0684 18.5042C40.0646 18.8417 40.0309 19.1698 39.984 19.5017C39.5902 22.1361 37.4715 24.3353 34.8653 24.8546C32.1802 25.389 29.3904 24.1797 27.9691 21.8321C26.5479 19.479 26.8066 16.436 28.5354 14.3225C30.2454 12.2263 33.2323 11.4125 35.769 12.35C38.3152 13.2931 40.0439 15.7288 40.0721 18.4436C40.0721 18.453 40.0814 18.4642 40.0814 18.4717L40.0815 18.4723Z" fill="#282774"/>
<path d="M23.8156 15.0658C23.8156 15.0808 23.8249 15.0883 23.8249 15.0939C23.8212 15.4839 23.7912 15.8721 23.7312 16.2564C23.2662 19.2939 20.8343 21.8288 17.8214 22.4288C14.737 23.0437 11.531 21.6563 9.89039 18.9637C8.23664 16.2488 8.52536 12.7199 10.5316 10.2733C12.5097 7.85836 15.9503 6.92083 18.8793 8.00083C21.8193 9.08457 23.7955 11.9046 23.8257 15.0357C23.8257 15.047 23.8163 15.0563 23.8163 15.0657L23.8156 15.0658Z" fill="#282774"/>
</svg>
