<svg width="40" height="30" viewBox="0 0 40 30" fill="none" xmlns="http://www.w3.org/2000/svg">
<path d="M37.8988 16.7708C36.8924 15.7644 34.8588 15.0311 33.3388 14.6808C32.9157 14.5917 32.6144 14.2161 32.6203 13.7842V13.3048C33.6416 12.518 34.3214 11.3691 34.5203 10.0941C36.0863 6.4885 35.2076 4.32566 34.1938 3.14728C32.5595 1.24728 29.6828 0.813849 27.6878 1.36158C26.4795 1.6926 25.6587 2.37246 25.4078 3.26158H25.3321C24.7369 3.29721 24.1862 3.58221 23.8121 4.04533C23.3905 3.81377 22.9452 3.63417 22.4821 3.50946C20.3757 2.97658 18.1535 3.16657 16.1707 4.05274C15.8545 3.49163 15.2548 3.15172 14.6121 3.17103C14.3271 2.33533 13.521 1.68515 12.3321 1.36158C10.3371 0.813849 7.46463 1.25471 5.82607 3.14728C4.80779 4.32589 3.92607 6.48713 5.49951 10.0941C5.69693 11.3691 6.37826 12.518 7.39951 13.3048V13.7842C7.40545 14.2161 7.10412 14.5917 6.68108 14.6808C5.1314 15.0311 3.1171 15.7644 2.12108 16.7708C1.16367 17.7089 1.17108 18.3056 1.18594 19.2141V19.5941H2.32594V19.1918C2.32594 18.3858 2.32594 18.1691 2.9078 17.5723C3.74349 16.7366 5.59451 16.091 6.9244 15.7896C7.0001 15.7703 7.0758 15.7466 7.14853 15.7184C8.75909 17.4788 11.4623 17.6837 13.3205 16.186C13.7094 17.6748 14.5911 18.9899 15.8202 19.9177V20.6999C15.832 21.4139 15.3363 22.0344 14.6386 22.1813C12.4952 22.6637 9.6986 23.6716 8.33896 25.0506C7.08021 26.2975 7.10989 27.0991 7.12919 28.2999V28.8432H8.26919V28.2806C8.26919 27.1406 8.24247 26.7606 9.15091 25.8448C10.3592 24.6365 12.9999 23.7087 14.8969 23.2842C15.0453 23.2501 15.1893 23.204 15.3303 23.1476C16.4941 24.4762 18.1759 25.2391 19.9439 25.2391C21.7103 25.2391 23.3921 24.4762 24.556 23.1476C24.6999 23.207 24.8469 23.253 24.9968 23.2872C26.8968 23.7132 29.5344 24.6394 30.7428 25.8477C31.6468 26.7799 31.6394 27.1599 31.6201 28.2999V28.8625H32.7601V28.3192C32.7794 27.1065 32.7942 26.3049 31.5444 25.0595C30.1654 23.6805 27.3868 22.6727 25.2447 22.1902C24.5441 22.0418 24.0469 21.4154 24.0632 20.6999V19.879C25.2982 18.932 26.174 17.5916 26.5435 16.079C28.402 17.6777 31.1955 17.51 32.8477 15.699C32.922 15.7272 32.9962 15.751 33.0719 15.7718C34.4019 16.0716 36.2529 16.7173 37.0885 17.5545C37.6852 18.1512 37.6808 18.3679 37.6703 19.1739V19.5762H38.8103V19.1962C38.8296 18.3056 38.8371 17.7088 37.8989 16.7707L37.8988 16.7708ZM33.422 9.33835C33.4249 10.6387 32.7763 11.8544 31.6942 12.5758C30.612 13.2972 29.2405 13.4308 28.0411 12.929C28.5547 11.3719 28.5874 9.69608 28.1316 8.12128C29.7392 8.4523 31.5516 8.16284 32.5552 6.89073C32.7334 6.93971 33.1594 7.27073 33.4221 8.36175L33.422 9.33835ZM25.4686 4.39835C25.7729 4.35234 26.3429 4.26921 26.4453 3.68733C26.5477 3.10548 27.0954 2.71062 27.9653 2.47164C29.5729 2.03076 31.9941 2.38406 33.3047 3.90405C34.0305 4.78872 34.3467 5.94062 34.1745 7.07317C33.6877 6.06229 33.0345 5.82331 32.7154 5.76989C32.331 5.68231 31.9302 5.83223 31.6971 6.14989C30.906 7.18003 28.9421 7.39974 27.3077 6.66646C26.8461 6.22114 26.2138 5.99701 25.5755 6.05489H25.5517C25.4033 5.54276 25.1198 5.08113 24.7308 4.71747C24.9208 4.50966 25.188 4.39091 25.4686 4.38943V4.39835ZM22.1703 4.61507C23.481 4.9728 24.3167 5.66007 24.4696 6.51507C24.5943 7.22609 25.2786 7.21419 25.5755 7.21419C26.0906 7.13552 26.5923 7.41755 26.7941 7.89702C27.2573 8.70303 27.6833 10.8717 26.7481 13.1946V13.0996H26.7496C26.5537 11.7132 25.8337 10.453 24.7383 9.58015C24.2276 9.14524 23.5419 8.97899 22.8887 9.13186C22.7477 9.17343 22.6275 9.26694 22.5533 9.3946C22.0189 10.3312 21.0466 10.9354 19.9704 10.9977C18.7592 11.0349 17.6147 10.453 16.9304 9.45548C16.8547 9.35454 16.7493 9.2818 16.6291 9.24618H16.6677C16.3085 9.07102 15.8869 9.07102 15.5277 9.24618C14.7677 9.59649 14.0567 10.683 13.4036 12.5638C12.8484 10.1695 13.2062 8.17135 14.4708 6.70797C16.3515 4.4814 19.8486 3.97968 22.1704 4.60611L22.1703 4.61507ZM6.70011 3.89219C8.01525 2.3722 10.4318 2.01891 12.0395 2.45978C12.9093 2.69877 13.4645 3.14409 13.5595 3.67548C13.6589 4.10446 14.0761 4.38057 14.5095 4.30636C14.7633 4.26034 15.0201 4.37315 15.1596 4.59136C14.5718 4.96097 14.0419 5.41371 13.5862 5.93621L13.5639 5.96293C11.9267 6.86692 9.33796 6.92479 8.35832 5.63637H8.35684C8.20395 5.30387 7.86401 5.09901 7.49887 5.1198C7.01202 5.16136 6.54443 5.56512 5.84975 7.23206C5.66717 5.8798 5.94029 4.7398 6.7003 3.89221L6.70011 3.89219ZM6.58582 9.33379V8.50106C6.8248 7.78115 7.14396 7.08792 7.53582 6.43778C8.6298 7.74847 10.7272 8.02606 12.5708 7.57778C12.0127 8.8469 11.7574 10.5525 12.2739 12.791L12.2754 12.7925C11.0701 13.4352 9.61542 13.3951 8.4473 12.6901C7.27763 11.9835 6.56661 10.7144 6.5755 9.34872L6.58582 9.33379ZM8.10582 15.0338C8.34925 14.7206 8.49471 14.345 8.52739 13.9502C9.83067 14.5053 11.3091 14.4757 12.59 13.8715C12.6998 14.2174 12.8334 14.5781 12.97 14.9462C12.3436 15.6201 11.4708 16.0105 10.5504 16.0268C9.63159 16.0432 8.74395 15.6839 8.09529 15.0338L8.10582 15.0338ZM23.622 22.4898C22.6764 23.5199 21.3435 24.1063 19.9452 24.1063C18.5469 24.1063 17.2139 23.5199 16.2684 22.4898C16.7137 21.9999 16.9601 21.3616 16.9601 20.6996V20.6121C18.8408 21.5294 21.0405 21.5205 22.9154 20.5898V20.6996C22.9184 21.3632 23.1708 22.0014 23.622 22.4898H23.622ZM19.9214 20.1534L19.9199 20.1519C18.4088 20.1519 16.9586 19.5522 15.89 18.4835C14.8215 17.4147 14.2201 15.9645 14.2201 14.4521V13.6045C15.0707 10.8569 15.7668 10.3522 15.9598 10.2646H15.9613C15.9954 10.2468 16.0325 10.2394 16.0711 10.2423C16.9885 11.4788 18.461 12.178 20.0003 12.1082C21.36 12.031 22.6039 11.3171 23.355 10.1815C23.6029 10.2127 23.8359 10.3136 24.0289 10.4695C24.8305 11.0617 25.5786 12.3991 25.5949 13.2734L25.5934 14.4684C25.5905 15.972 24.9908 17.4148 23.928 18.4793C22.8652 19.5436 21.4253 20.1462 19.9201 20.1521L19.9214 20.1534ZM27.0761 14.9998C27.2824 14.6718 27.4664 14.3319 27.6297 13.9815C28.8662 14.4877 30.2541 14.4788 31.4833 13.9593C31.516 14.3526 31.6629 14.7296 31.9049 15.0414C31.2636 15.6856 30.3908 16.0433 29.4824 16.0345C28.5739 16.027 27.7056 15.6545 27.0762 14.9998L27.0761 14.9998Z" fill="white" stroke="white"/>
</svg>
