<svg width="366" height="112" viewBox="0 0 366 112" fill="none" xmlns="http://www.w3.org/2000/svg">
<g filter="url(#filter0_d)">
<rect x="24" y="20" width="318" height="64" rx="32" fill="white"/>
</g>
<path d="M91.278 49.16C92.174 49.16 92.8927 49.4493 93.434 50.028C93.9753 50.6067 94.246 51.4327 94.246 52.506V57H92.65V52.674C92.65 51.9833 92.4727 51.4513 92.118 51.078C91.7633 50.6953 91.278 50.504 90.662 50.504C90.0273 50.504 89.5187 50.7093 89.136 51.12C88.7533 51.5213 88.562 52.114 88.562 52.898V57H86.966V46.64H88.562V50.98C88.7673 50.4013 89.1127 49.9533 89.598 49.636C90.0833 49.3187 90.6433 49.16 91.278 49.16ZM99.9905 55.614V57H99.0105C98.1892 57 97.5638 56.804 97.1345 56.412C96.7145 56.0107 96.5045 55.348 96.5045 54.424V50.644H95.3985V49.286H96.5045V47.368H98.1145V49.286H99.9765V50.644H98.1145V54.452C98.1145 54.8907 98.1938 55.194 98.3525 55.362C98.5205 55.53 98.8098 55.614 99.2205 55.614H99.9905ZM105.364 55.614V57H104.384C103.562 57 102.937 56.804 102.508 56.412C102.088 56.0107 101.878 55.348 101.878 54.424V50.644H100.772V49.286H101.878V47.368H103.488V49.286H105.35V50.644H103.488V54.452C103.488 54.8907 103.567 55.194 103.726 55.362C103.894 55.53 104.183 55.614 104.594 55.614H105.364ZM111.283 49.188C111.955 49.188 112.552 49.3467 113.075 49.664C113.607 49.9813 114.022 50.4387 114.321 51.036C114.619 51.6333 114.769 52.3333 114.769 53.136C114.769 53.948 114.619 54.6527 114.321 55.25C114.022 55.8473 113.607 56.3047 113.075 56.622C112.552 56.9393 111.955 57.098 111.283 57.098C110.583 57.098 109.985 56.9253 109.491 56.58C108.996 56.2347 108.651 55.7773 108.455 55.208V60.668H106.859V49.286H108.455V51.078C108.651 50.5087 108.996 50.0513 109.491 49.706C109.985 49.3607 110.583 49.188 111.283 49.188ZM110.793 50.588C110.345 50.588 109.943 50.6953 109.589 50.91C109.234 51.1153 108.954 51.414 108.749 51.806C108.543 52.1887 108.441 52.632 108.441 53.136C108.441 53.6493 108.543 54.0973 108.749 54.48C108.954 54.8627 109.234 55.1613 109.589 55.376C109.943 55.5813 110.345 55.684 110.793 55.684C111.502 55.684 112.071 55.46 112.501 55.012C112.93 54.5547 113.145 53.9293 113.145 53.136C113.145 52.352 112.93 51.7313 112.501 51.274C112.071 50.8167 111.502 50.588 110.793 50.588ZM118.84 49.188C119.745 49.188 120.469 49.4213 121.01 49.888C121.561 50.3453 121.897 50.9613 122.018 51.736H120.506C120.441 51.316 120.259 50.98 119.96 50.728C119.671 50.4667 119.283 50.336 118.798 50.336C118.397 50.336 118.084 50.434 117.86 50.63C117.645 50.8167 117.538 51.0733 117.538 51.4C117.538 51.6427 117.617 51.8387 117.776 51.988C117.935 52.1373 118.131 52.254 118.364 52.338C118.607 52.422 118.947 52.5153 119.386 52.618C119.965 52.7487 120.431 52.884 120.786 53.024C121.15 53.164 121.458 53.388 121.71 53.696C121.971 53.9947 122.102 54.4053 122.102 54.928C122.102 55.572 121.855 56.0947 121.36 56.496C120.875 56.8973 120.217 57.098 119.386 57.098C118.425 57.098 117.645 56.874 117.048 56.426C116.46 55.978 116.105 55.3527 115.984 54.55H117.538C117.585 54.97 117.771 55.3107 118.098 55.572C118.425 55.8333 118.854 55.964 119.386 55.964C119.769 55.964 120.067 55.866 120.282 55.67C120.506 55.4647 120.618 55.208 120.618 54.9C120.618 54.6293 120.534 54.4147 120.366 54.256C120.198 54.0973 119.988 53.976 119.736 53.892C119.484 53.7987 119.139 53.7053 118.7 53.612C118.14 53.4813 117.683 53.3507 117.328 53.22C116.983 53.0893 116.684 52.8793 116.432 52.59C116.189 52.2913 116.068 51.89 116.068 51.386C116.068 50.7327 116.311 50.2053 116.796 49.804C117.291 49.3933 117.972 49.188 118.84 49.188ZM125.186 49.3V51.064H123.38V49.3H125.186ZM125.186 55.236V57H123.38V55.236H125.186ZM131.106 43.784L127.298 59.464H125.744L129.552 43.784H131.106ZM136.397 43.784L132.589 59.464H131.035L134.843 43.784H136.397ZM141.674 57L138.902 53.57V57H137.306V46.64H138.902V52.576L141.646 49.286H143.564L140.204 53.122L143.648 57H141.674ZM148.217 49.188C148.963 49.188 149.635 49.3467 150.233 49.664C150.83 49.9813 151.297 50.4387 151.633 51.036C151.969 51.6333 152.137 52.3333 152.137 53.136C152.137 53.948 151.969 54.6527 151.633 55.25C151.297 55.8473 150.83 56.3047 150.233 56.622C149.635 56.9393 148.963 57.098 148.217 57.098C147.47 57.098 146.798 56.9393 146.201 56.622C145.613 56.3047 145.146 55.8473 144.801 55.25C144.465 54.6433 144.297 53.9387 144.297 53.136C144.297 52.3333 144.465 51.6333 144.801 51.036C145.146 50.4387 145.613 49.9813 146.201 49.664C146.798 49.3467 147.47 49.188 148.217 49.188ZM148.217 50.574C147.806 50.574 147.428 50.6673 147.083 50.854C146.737 51.0407 146.457 51.33 146.243 51.722C146.037 52.1047 145.935 52.576 145.935 53.136C145.935 53.7053 146.037 54.1813 146.243 54.564C146.457 54.9467 146.737 55.2313 147.083 55.418C147.428 55.6047 147.806 55.698 148.217 55.698C148.627 55.698 149.005 55.6047 149.351 55.418C149.696 55.2313 149.971 54.9467 150.177 54.564C150.391 54.1813 150.499 53.7053 150.499 53.136C150.499 52.576 150.391 52.1047 150.177 51.722C149.971 51.33 149.696 51.0407 149.351 50.854C149.005 50.6673 148.627 50.574 148.217 50.574ZM157.983 49.16C158.879 49.16 159.598 49.4493 160.139 50.028C160.68 50.6067 160.951 51.4327 160.951 52.506V57H159.355V52.674C159.355 51.9833 159.178 51.4513 158.823 51.078C158.468 50.6953 157.983 50.504 157.367 50.504C156.732 50.504 156.224 50.7093 155.841 51.12C155.458 51.5213 155.267 52.114 155.267 52.898V57H153.671V49.286H155.267V50.98C155.472 50.4013 155.818 49.9533 156.303 49.636C156.788 49.3187 157.348 49.16 157.983 49.16ZM162.594 47.046C162.594 46.7753 162.687 46.5513 162.874 46.374C163.06 46.1967 163.308 46.108 163.616 46.108C163.924 46.108 164.171 46.1967 164.358 46.374C164.554 46.5513 164.652 46.7753 164.652 47.046C164.652 47.3167 164.554 47.536 164.358 47.704C164.171 47.872 163.924 47.956 163.616 47.956C163.308 47.956 163.06 47.872 162.874 47.704C162.687 47.536 162.594 47.3167 162.594 47.046ZM164.414 49.286V57H162.818V49.286H164.414ZM167.941 46.64V57H166.345V46.64H167.941ZM172.966 49.188C173.666 49.188 174.264 49.3607 174.758 49.706C175.253 50.0513 175.603 50.5087 175.808 51.078V49.286H177.404V57H175.808V55.208C175.603 55.7773 175.253 56.2347 174.758 56.58C174.264 56.9253 173.666 57.098 172.966 57.098C172.294 57.098 171.692 56.9393 171.16 56.622C170.638 56.3047 170.227 55.8473 169.928 55.25C169.63 54.6527 169.48 53.948 169.48 53.136C169.48 52.3333 169.63 51.6333 169.928 51.036C170.227 50.4387 170.638 49.9813 171.16 49.664C171.692 49.3467 172.294 49.188 172.966 49.188ZM173.456 50.588C172.747 50.588 172.178 50.8167 171.748 51.274C171.328 51.722 171.118 52.3427 171.118 53.136C171.118 53.9293 171.328 54.5547 171.748 55.012C172.178 55.46 172.747 55.684 173.456 55.684C173.904 55.684 174.306 55.5813 174.66 55.376C175.015 55.1613 175.295 54.8627 175.5 54.48C175.706 54.0973 175.808 53.6493 175.808 53.136C175.808 52.632 175.706 52.1887 175.5 51.806C175.295 51.414 175.015 51.1153 174.66 50.91C174.306 50.6953 173.904 50.588 173.456 50.588ZM188.966 49.16C189.88 49.16 190.608 49.4493 191.15 50.028C191.7 50.6067 191.976 51.4327 191.976 52.506V57H190.38V52.674C190.38 52.002 190.212 51.484 189.876 51.12C189.54 50.7467 189.078 50.56 188.49 50.56C187.864 50.56 187.365 50.7607 186.992 51.162C186.628 51.554 186.446 52.1327 186.446 52.898V57H184.85V52.674C184.85 52.002 184.682 51.484 184.346 51.12C184.01 50.7467 183.548 50.56 182.96 50.56C182.334 50.56 181.835 50.7607 181.462 51.162C181.098 51.554 180.916 52.1327 180.916 52.898V57H179.32V49.286H180.916V50.896C181.112 50.336 181.438 49.9067 181.896 49.608C182.353 49.3093 182.89 49.16 183.506 49.16C184.15 49.16 184.705 49.3187 185.172 49.636C185.648 49.9533 185.993 50.4107 186.208 51.008C186.432 50.4293 186.791 49.9767 187.286 49.65C187.78 49.3233 188.34 49.16 188.966 49.16ZM197.367 49.188C198.114 49.188 198.786 49.3467 199.383 49.664C199.98 49.9813 200.447 50.4387 200.783 51.036C201.119 51.6333 201.287 52.3333 201.287 53.136C201.287 53.948 201.119 54.6527 200.783 55.25C200.447 55.8473 199.98 56.3047 199.383 56.622C198.786 56.9393 198.114 57.098 197.367 57.098C196.62 57.098 195.948 56.9393 195.351 56.622C194.763 56.3047 194.296 55.8473 193.951 55.25C193.615 54.6433 193.447 53.9387 193.447 53.136C193.447 52.3333 193.615 51.6333 193.951 51.036C194.296 50.4387 194.763 49.9813 195.351 49.664C195.948 49.3467 196.62 49.188 197.367 49.188ZM197.367 50.574C196.956 50.574 196.578 50.6673 196.233 50.854C195.888 51.0407 195.608 51.33 195.393 51.722C195.188 52.1047 195.085 52.576 195.085 53.136C195.085 53.7053 195.188 54.1813 195.393 54.564C195.608 54.9467 195.888 55.2313 196.233 55.418C196.578 55.6047 196.956 55.698 197.367 55.698C197.778 55.698 198.156 55.6047 198.501 55.418C198.846 55.2313 199.122 54.9467 199.327 54.564C199.542 54.1813 199.649 53.7053 199.649 53.136C199.649 52.576 199.542 52.1047 199.327 51.722C199.122 51.33 198.846 51.0407 198.501 50.854C198.156 50.6673 197.778 50.574 197.367 50.574ZM207.133 49.16C208.029 49.16 208.748 49.4493 209.289 50.028C209.831 50.6067 210.101 51.4327 210.101 52.506V57H208.505V52.674C208.505 51.9833 208.328 51.4513 207.973 51.078C207.619 50.6953 207.133 50.504 206.517 50.504C205.883 50.504 205.374 50.7093 204.991 51.12C204.609 51.5213 204.417 52.114 204.417 52.898V57H202.821V49.286H204.417V50.98C204.623 50.4013 204.968 49.9533 205.453 49.636C205.939 49.3187 206.499 49.16 207.133 49.16ZM215.062 49.188C215.762 49.188 216.359 49.3607 216.854 49.706C217.349 50.0513 217.699 50.5087 217.904 51.078V49.286H219.5V57.084C219.5 57.8027 219.351 58.4373 219.052 58.988C218.763 59.548 218.343 59.9867 217.792 60.304C217.241 60.6213 216.588 60.78 215.832 60.78C214.749 60.78 213.872 60.5233 213.2 60.01C212.537 59.4967 212.122 58.8013 211.954 57.924H213.536C213.667 58.3813 213.919 58.736 214.292 58.988C214.665 59.2493 215.141 59.38 215.72 59.38C216.355 59.38 216.877 59.184 217.288 58.792C217.699 58.4 217.904 57.8307 217.904 57.084V55.208C217.699 55.7773 217.349 56.2347 216.854 56.58C216.359 56.9253 215.762 57.098 215.062 57.098C214.39 57.098 213.788 56.9393 213.256 56.622C212.733 56.3047 212.323 55.8473 212.024 55.25C211.725 54.6527 211.576 53.948 211.576 53.136C211.576 52.3333 211.725 51.6333 212.024 51.036C212.323 50.4387 212.733 49.9813 213.256 49.664C213.788 49.3467 214.39 49.188 215.062 49.188ZM215.552 50.588C214.843 50.588 214.273 50.8167 213.844 51.274C213.424 51.722 213.214 52.3427 213.214 53.136C213.214 53.9293 213.424 54.5547 213.844 55.012C214.273 55.46 214.843 55.684 215.552 55.684C216 55.684 216.401 55.5813 216.756 55.376C217.111 55.1613 217.391 54.8627 217.596 54.48C217.801 54.0973 217.904 53.6493 217.904 53.136C217.904 52.632 217.801 52.1887 217.596 51.806C217.391 51.414 217.111 51.1153 216.756 50.91C216.401 50.6953 216 50.588 215.552 50.588ZM224.509 49.188C225.209 49.188 225.807 49.3607 226.301 49.706C226.796 50.0513 227.146 50.5087 227.351 51.078V49.286H228.947V57H227.351V55.208C227.146 55.7773 226.796 56.2347 226.301 56.58C225.807 56.9253 225.209 57.098 224.509 57.098C223.837 57.098 223.235 56.9393 222.703 56.622C222.181 56.3047 221.77 55.8473 221.471 55.25C221.173 54.6527 221.023 53.948 221.023 53.136C221.023 52.3333 221.173 51.6333 221.471 51.036C221.77 50.4387 222.181 49.9813 222.703 49.664C223.235 49.3467 223.837 49.188 224.509 49.188ZM224.999 50.588C224.29 50.588 223.721 50.8167 223.291 51.274C222.871 51.722 222.661 52.3427 222.661 53.136C222.661 53.9293 222.871 54.5547 223.291 55.012C223.721 55.46 224.29 55.684 224.999 55.684C225.447 55.684 225.849 55.5813 226.203 55.376C226.558 55.1613 226.838 54.8627 227.043 54.48C227.249 54.0973 227.351 53.6493 227.351 53.136C227.351 52.632 227.249 52.1887 227.043 51.806C226.838 51.414 226.558 51.1153 226.203 50.91C225.849 50.6953 225.447 50.588 224.999 50.588ZM235.174 49.16C236.07 49.16 236.789 49.4493 237.33 50.028C237.872 50.6067 238.142 51.4327 238.142 52.506V57H236.546V52.674C236.546 51.9833 236.369 51.4513 236.014 51.078C235.66 50.6953 235.174 50.504 234.558 50.504C233.924 50.504 233.415 50.7093 233.032 51.12C232.65 51.5213 232.458 52.114 232.458 52.898V57H230.862V49.286H232.458V50.98C232.664 50.4013 233.009 49.9533 233.494 49.636C233.98 49.3187 234.54 49.16 235.174 49.16ZM241.269 55.236V57H239.463V55.236H241.269ZM246.203 49.188C246.95 49.188 247.622 49.3467 248.219 49.664C248.816 49.9813 249.283 50.4387 249.619 51.036C249.955 51.6333 250.123 52.3333 250.123 53.136C250.123 53.948 249.955 54.6527 249.619 55.25C249.283 55.8473 248.816 56.3047 248.219 56.622C247.622 56.9393 246.95 57.098 246.203 57.098C245.456 57.098 244.784 56.9393 244.187 56.622C243.599 56.3047 243.132 55.8473 242.787 55.25C242.451 54.6433 242.283 53.9387 242.283 53.136C242.283 52.3333 242.451 51.6333 242.787 51.036C243.132 50.4387 243.599 49.9813 244.187 49.664C244.784 49.3467 245.456 49.188 246.203 49.188ZM246.203 50.574C245.792 50.574 245.414 50.6673 245.069 50.854C244.724 51.0407 244.444 51.33 244.229 51.722C244.024 52.1047 243.921 52.576 243.921 53.136C243.921 53.7053 244.024 54.1813 244.229 54.564C244.444 54.9467 244.724 55.2313 245.069 55.418C245.414 55.6047 245.792 55.698 246.203 55.698C246.614 55.698 246.992 55.6047 247.337 55.418C247.682 55.2313 247.958 54.9467 248.163 54.564C248.378 54.1813 248.485 53.7053 248.485 53.136C248.485 52.576 248.378 52.1047 248.163 51.722C247.958 51.33 247.682 51.0407 247.337 50.854C246.992 50.6673 246.614 50.574 246.203 50.574ZM253.253 50.798C253.515 50.294 253.888 49.8973 254.373 49.608C254.859 49.3093 255.419 49.16 256.053 49.16V50.896H255.577C254.877 50.896 254.313 51.0687 253.883 51.414C253.463 51.75 253.253 52.31 253.253 53.094V57H251.657V49.286H253.253V50.798ZM258.509 55.236V57H256.703V55.236H258.509ZM259.691 47.046C259.691 46.7753 259.785 46.5513 259.971 46.374C260.158 46.1967 260.405 46.108 260.713 46.108C261.021 46.108 261.269 46.1967 261.455 46.374C261.651 46.5513 261.749 46.7753 261.749 47.046C261.749 47.3167 261.651 47.536 261.455 47.704C261.269 47.872 261.021 47.956 260.713 47.956C260.405 47.956 260.158 47.872 259.971 47.704C259.785 47.536 259.691 47.3167 259.691 47.046ZM261.511 49.286V57H259.915V49.286H261.511ZM266.537 49.188C267.237 49.188 267.834 49.3607 268.329 49.706C268.823 50.0513 269.169 50.5087 269.365 51.078V46.64H270.975V57H269.365V55.208C269.169 55.7773 268.823 56.2347 268.329 56.58C267.834 56.9253 267.237 57.098 266.537 57.098C265.865 57.098 265.263 56.9393 264.731 56.622C264.208 56.3047 263.797 55.8473 263.499 55.25C263.2 54.6527 263.051 53.948 263.051 53.136C263.051 52.3333 263.2 51.6333 263.499 51.036C263.797 50.4387 264.208 49.9813 264.731 49.664C265.263 49.3467 265.865 49.188 266.537 49.188ZM267.027 50.588C266.317 50.588 265.748 50.8167 265.319 51.274C264.899 51.722 264.689 52.3427 264.689 53.136C264.689 53.9293 264.899 54.5547 265.319 55.012C265.748 55.46 266.317 55.684 267.027 55.684C267.475 55.684 267.876 55.5813 268.231 55.376C268.585 55.1613 268.865 54.8627 269.071 54.48C269.276 54.0973 269.379 53.6493 269.379 53.136C269.379 52.632 269.276 52.1887 269.071 51.806C268.865 51.414 268.585 51.1153 268.231 50.91C267.876 50.6953 267.475 50.588 267.027 50.588Z" fill="#282774"/>
<path d="M67.2765 52.0011C67.2765 52.453 67.2465 52.903 67.1846 53.353C67.194 53.2892 67.2015 53.2292 67.2108 53.1655C67.0918 54.0355 66.8593 54.883 66.5218 55.6893C66.5452 55.6331 66.5687 55.5768 66.5921 55.5206C66.3783 56.0221 66.1262 56.5068 65.8355 56.969C65.7043 57.1772 65.5637 57.3834 65.4165 57.5831C65.3809 57.63 65.3462 57.675 65.3134 57.719C65.4615 57.5203 65.3209 57.7078 65.2852 57.7518C65.2102 57.8456 65.1334 57.9375 65.0555 58.0284C64.7415 58.3921 64.4012 58.7315 64.0412 59.0456C63.9493 59.1253 63.8583 59.2003 63.7646 59.2753C63.7196 59.3109 63.6755 59.3456 63.6315 59.3803C63.5612 59.4365 63.7815 59.265 63.6784 59.3428C63.6455 59.3662 63.6146 59.3915 63.5827 59.4159C63.3905 59.5584 63.1909 59.6953 62.9874 59.8237C62.5262 60.1162 62.0387 60.3693 61.5362 60.585C61.5924 60.5615 61.6487 60.5381 61.7049 60.5147C60.8912 60.8568 60.0362 61.0912 59.1623 61.2103C59.2261 61.2009 59.2861 61.1934 59.3498 61.184C58.4592 61.3012 57.5545 61.3012 56.664 61.184C56.7278 61.1934 56.7878 61.2009 56.8515 61.2103C55.9778 61.0912 55.1218 60.8559 54.3089 60.5147C54.3652 60.5381 54.4214 60.5615 54.4777 60.585C54.0324 60.3956 53.6011 60.1744 53.1858 59.924C52.9796 59.8003 52.7808 59.6662 52.5839 59.5284C52.5371 59.4956 52.4902 59.4628 52.4452 59.4272C52.4171 59.4065 52.3889 59.3878 52.3627 59.3662C52.3439 59.3522 52.2502 59.28 52.3514 59.3587C52.4593 59.4431 52.2999 59.3193 52.2746 59.2978C52.2258 59.2584 52.1761 59.2181 52.1293 59.1787C51.7618 58.8712 51.4149 58.5393 51.0933 58.1831C51.0136 58.094 50.9339 58.0031 50.8571 57.9112C50.8196 57.8662 50.7839 57.825 50.7493 57.78C50.7305 57.7594 50.7136 57.735 50.6958 57.7125C50.6789 57.6919 50.5833 57.5672 50.6658 57.675C50.7502 57.7828 50.6264 57.6234 50.6077 57.5953C50.5721 57.5484 50.5402 57.5034 50.5064 57.4565C50.4333 57.3534 50.3611 57.2503 50.2908 57.1453C49.9514 56.6315 49.6608 56.0859 49.4189 55.5187C49.4424 55.575 49.4658 55.6312 49.4893 55.6875C49.1499 54.8794 48.9174 54.03 48.8002 53.1636C48.8096 53.2274 48.8171 53.2874 48.8264 53.3511C48.7074 52.454 48.7074 51.5465 48.8264 50.6492C48.8171 50.713 48.8096 50.773 48.8002 50.8367C48.9193 49.9667 49.1517 49.1192 49.4893 48.3129C49.4658 48.3691 49.4424 48.4254 49.4189 48.4816C49.6327 47.9801 49.8849 47.4954 50.1755 47.0332C50.3067 46.8251 50.4474 46.6188 50.5946 46.4191C50.6302 46.3723 50.6649 46.3273 50.6977 46.2832C50.5496 46.4819 50.6902 46.2944 50.7258 46.2504C50.8008 46.1566 50.8777 46.0648 50.9555 45.9738C51.2696 45.6101 51.6099 45.2707 51.9699 44.9566C52.0618 44.8769 52.1527 44.8019 52.2464 44.7269C52.2914 44.6913 52.3355 44.6566 52.3796 44.6219C52.4499 44.5657 52.2296 44.7373 52.3327 44.6594C52.3655 44.636 52.3964 44.6107 52.4283 44.5863C52.6205 44.4438 52.8202 44.3069 53.0236 44.1785C53.4849 43.886 53.9724 43.6329 54.4749 43.4173C54.4186 43.4407 54.3624 43.4641 54.3061 43.4876C55.1199 43.1454 55.9749 42.911 56.8487 42.792C56.785 42.8013 56.725 42.8088 56.6612 42.8182C57.5518 42.701 58.4565 42.701 59.347 42.8182C59.2833 42.8088 59.2233 42.8013 59.1595 42.792C60.0333 42.911 60.8892 43.1463 61.7021 43.4876C61.6459 43.4641 61.5896 43.4407 61.5334 43.4173C61.9787 43.6066 62.4099 43.8279 62.8252 44.0782C63.0315 44.2019 63.2302 44.336 63.4271 44.4738C63.474 44.5066 63.5208 44.5394 63.5658 44.5751C63.594 44.5957 63.6221 44.6144 63.6483 44.636C63.6671 44.6501 63.7608 44.7222 63.6596 44.6435C63.5518 44.5591 63.7112 44.6829 63.7365 44.7044C63.7852 44.7438 63.8349 44.7841 63.8818 44.8235C64.2493 45.131 64.5962 45.4629 64.9177 45.8191C64.9974 45.9082 65.0771 45.9991 65.154 46.091C65.1915 46.136 65.2271 46.1772 65.2618 46.2222C65.2805 46.2429 65.2974 46.2672 65.3152 46.2897C65.3321 46.3104 65.4277 46.435 65.3452 46.3272C65.2608 46.2194 65.3846 46.3788 65.4033 46.4069C65.439 46.4538 65.4708 46.4988 65.5046 46.5457C65.5777 46.6488 65.6499 46.7519 65.7202 46.8569C66.0596 47.3707 66.3502 47.9163 66.5921 48.4835C66.5687 48.4272 66.5452 48.371 66.5218 48.3147C66.8612 49.1229 67.0937 49.9722 67.2108 50.8386C67.2015 50.7748 67.194 50.7148 67.1846 50.6511C67.2455 51.0992 67.2765 51.5492 67.2765 52.0011C67.2765 52.3686 67.5999 52.7211 67.9796 52.7042C68.3593 52.6873 68.6827 52.3948 68.6827 52.0011C68.678 49.6836 67.9215 47.384 66.5059 45.5436C65.2168 43.8674 63.4871 42.6017 61.4903 41.9014C59.4794 41.1964 57.2359 41.1336 55.18 41.6933C53.2019 42.2323 51.3755 43.362 50.0191 44.8994C48.4769 46.646 47.5468 48.8342 47.3519 51.1553C47.1551 53.499 47.7738 55.913 49.0751 57.8724C50.2047 59.5739 51.8144 60.9643 53.6951 61.7743C54.7169 62.2149 55.7669 62.4962 56.8731 62.6199C57.9466 62.7418 59.0369 62.6809 60.0983 62.4746C62.1214 62.0827 64.0189 61.0637 65.4889 59.6198C67.0676 58.0711 68.1673 56.0085 68.5263 53.8195C68.6248 53.2176 68.6838 52.6101 68.6838 52.0007C68.6838 51.6333 68.3604 51.2807 67.9807 51.2976C67.5982 51.3145 67.2795 51.607 67.2767 52.0007L67.2765 52.0011Z" fill="#FF9900"/>
<path d="M62.5938 52.0002C62.5938 52.8271 62.5404 53.6549 62.4298 54.4751C62.4391 54.4113 62.4466 54.3513 62.456 54.2876C62.2826 55.5626 61.9732 56.8234 61.4735 58.0114C61.4969 57.9552 61.5204 57.8989 61.5438 57.8427C61.2766 58.4727 60.9579 59.082 60.5613 59.6408C60.5191 59.7017 60.4751 59.7598 60.4301 59.8208C60.3457 59.9361 60.5454 59.6783 60.4563 59.788C60.4301 59.8208 60.4047 59.8517 60.3794 59.8836C60.2838 60.0008 60.1844 60.1133 60.0813 60.2211C59.9829 60.3261 59.8797 60.4273 59.7719 60.523C59.7232 60.568 59.6735 60.6092 59.6219 60.6523C59.5957 60.673 59.5704 60.6917 59.5469 60.7133C59.4719 60.7742 59.6407 60.6401 59.6313 60.6476C59.6125 60.6617 59.5938 60.6758 59.5732 60.6898C59.3388 60.8633 59.0857 61.0104 58.8166 61.1258C58.8729 61.1023 58.9291 61.0789 58.9854 61.0555C58.7341 61.1605 58.4744 61.2355 58.2072 61.2739C58.271 61.2645 58.331 61.257 58.3947 61.2476C58.1341 61.2833 57.8716 61.2833 57.6119 61.2476C57.6757 61.257 57.7357 61.2645 57.7994 61.2739C57.5294 61.2364 57.2698 61.1614 57.0213 61.0555C57.0776 61.0789 57.1338 61.1023 57.1901 61.1258C56.951 61.0226 56.7241 60.8933 56.5104 60.7433C56.4522 60.7039 56.2591 60.5483 56.4804 60.7245C56.4269 60.6823 56.3726 60.6383 56.3191 60.5933C56.2113 60.4995 56.1054 60.4039 56.0051 60.3026C55.9038 60.1995 55.8063 60.0945 55.7125 59.9839C55.6638 59.9258 55.6141 59.8667 55.5672 59.8058C55.556 59.7917 55.5438 59.7776 55.5344 59.7636C55.4857 59.7026 55.6422 59.9042 55.5925 59.8405C55.5663 59.8076 55.5438 59.7748 55.5175 59.7392C55.3225 59.4748 55.1444 59.1955 54.9832 58.9095C54.7882 58.5627 54.6157 58.2045 54.46 57.8389C54.4835 57.8952 54.5069 57.9514 54.5303 58.0077C54.0297 56.8236 53.7203 55.5625 53.5469 54.2877C53.5563 54.3514 53.5638 54.4114 53.5732 54.4752C53.3528 52.8345 53.3528 51.1629 53.5732 49.5252C53.5638 49.5889 53.5563 49.6489 53.5469 49.7127C53.7203 48.4377 54.0297 47.1768 54.5294 45.9888C54.506 46.0451 54.4825 46.1013 54.4591 46.1576C54.7263 45.5276 55.045 44.9182 55.4416 44.3594C55.4838 44.2985 55.5279 44.2404 55.5729 44.1794C55.6572 44.0641 55.4575 44.3219 55.5466 44.2122C55.5729 44.1794 55.5982 44.1485 55.6235 44.1166C55.7191 43.9994 55.8185 43.8869 55.9216 43.7791C56.0201 43.6741 56.1232 43.5729 56.231 43.4773C56.2797 43.4323 56.3294 43.391 56.381 43.3479C56.4072 43.3273 56.4326 43.3085 56.456 43.287C56.531 43.226 56.3622 43.3601 56.3716 43.3526C56.3904 43.3385 56.4091 43.3245 56.4297 43.3104C56.6641 43.137 56.9172 42.9898 57.1863 42.8745C57.13 42.8979 57.0738 42.9213 57.0176 42.9448C57.2688 42.8398 57.5285 42.7648 57.7957 42.7263C57.7319 42.7357 57.6719 42.7432 57.6082 42.7526C57.8688 42.717 58.1313 42.717 58.391 42.7526C58.3272 42.7432 58.2672 42.7357 58.2035 42.7263C58.4735 42.7638 58.7332 42.8388 58.9816 42.9448C58.9254 42.9213 58.8691 42.8979 58.8129 42.8745C59.0519 42.9776 59.2788 43.107 59.4925 43.257C59.5507 43.2963 59.7438 43.452 59.5225 43.2757C59.576 43.3179 59.6304 43.362 59.6838 43.407C59.7916 43.5007 59.8975 43.5963 59.9979 43.6976C60.0991 43.8007 60.1966 43.9057 60.2904 44.0163C60.3391 44.0745 60.3888 44.1335 60.4357 44.1945C60.4469 44.2085 60.4591 44.2226 60.4685 44.2366C60.5172 44.2976 60.3607 44.096 60.4104 44.1598C60.4366 44.1926 60.4591 44.2254 60.4854 44.261C60.6804 44.5254 60.8585 44.8048 61.0198 45.0907C61.2148 45.4376 61.3872 45.7957 61.5429 46.1613C61.5194 46.1051 61.496 46.0488 61.4726 45.9926C61.9713 47.1813 62.2788 48.4413 62.4551 49.7164C62.4457 49.6527 62.4382 49.5927 62.4288 49.5289C62.5395 50.3455 62.592 51.1733 62.5938 52.0002C62.5938 52.3677 62.9173 52.7202 63.297 52.7033C63.6766 52.6864 64.0001 52.3939 64.0001 52.0002C63.9982 49.9677 63.7076 47.8863 62.9782 45.9815C62.3923 44.458 61.5392 42.9534 60.1657 42.0111C59.5844 41.6127 58.9094 41.3737 58.2063 41.3249C57.5144 41.2761 56.8188 41.4608 56.2094 41.7843C55.5907 42.1124 55.0488 42.6018 54.6081 43.1437C54.0813 43.7924 53.6538 44.5049 53.3163 45.2699C52.4894 47.1449 52.0975 49.1812 52.0131 51.2248C51.9288 53.2892 52.1556 55.4106 52.7931 57.3822C53.0725 58.24 53.4288 59.0885 53.8947 59.8619C54.2866 60.5088 54.7591 61.1322 55.3403 61.6197C55.8794 62.0744 56.5047 62.4494 57.2013 62.5966C57.8744 62.7419 58.5906 62.7091 59.2375 62.4635C60.6925 61.9085 61.7237 60.6335 62.4156 59.2779C63.3203 57.5079 63.7637 55.5327 63.9268 53.5611C63.969 53.0437 63.9906 52.5224 63.9906 52.003C63.9906 51.6355 63.6671 51.283 63.2875 51.2999C62.9143 51.314 62.5937 51.6064 62.5937 52.0002L62.5938 52.0002Z" fill="#FF9900"/>
<path d="M67.2765 52C67.2765 52.4518 67.2465 52.9018 67.1846 53.3518C67.194 53.2881 67.2015 53.2281 67.2108 53.1643C67.0918 54.0343 66.8593 54.8818 66.5218 55.6882C66.5452 55.6319 66.5686 55.5757 66.5921 55.5194C66.353 56.0819 66.0652 56.621 65.7296 57.1319C65.9311 57.0147 66.1346 56.8994 66.3371 56.7832H65.8889H64.6777H62.8796H60.6952H58.3027H55.8765H53.6152H51.7121H50.3434C50.1249 56.7832 49.9074 56.7785 49.689 56.7832H49.6609C49.8624 56.9004 50.0659 57.0157 50.2683 57.1319C49.9327 56.621 49.6449 56.0819 49.4058 55.5194C49.4293 55.5757 49.4527 55.6319 49.4761 55.6882C49.1368 54.88 48.9043 54.0307 48.7871 53.1643C48.7965 53.2281 48.804 53.2881 48.8133 53.3518C48.6943 52.4546 48.6943 51.5471 48.8133 50.6499C48.804 50.7137 48.7965 50.7737 48.7871 50.8374C48.9061 49.9674 49.1386 49.1199 49.4761 48.3136C49.4527 48.3698 49.4293 48.4261 49.4058 48.4823C49.6449 47.9198 49.9327 47.3808 50.2683 46.8698C50.0668 46.987 49.8633 47.1023 49.6609 47.2185H50.109H51.3202H53.1184H55.3028H57.6953H60.1214H62.3827H64.2858H65.6546C65.873 47.2185 66.0905 47.2232 66.3089 47.2185H66.3371C66.1355 47.1014 65.9321 46.986 65.7296 46.8698C66.0652 47.3807 66.353 47.9198 66.5921 48.4823C66.5687 48.4261 66.5452 48.3698 66.5218 48.3136C66.8612 49.1217 67.0936 49.9711 67.2108 50.8374C67.2015 50.7737 67.194 50.7137 67.1846 50.6499C67.2455 51.098 67.2765 51.548 67.2765 51.9999C67.2765 52.3674 67.5999 52.7199 67.9796 52.703C68.3593 52.6862 68.6827 52.3937 68.6827 51.9999C68.678 50.1174 68.1812 48.2451 67.2296 46.6186C67.0627 46.3327 66.8658 45.9136 66.5218 45.833C66.458 45.8189 66.3905 45.8096 66.3249 45.8068H66.233H65.7877H64.0233H61.4189H58.3721H55.2782H52.5331H50.5315C50.2456 45.8068 49.955 45.7955 49.669 45.8068C49.5078 45.8143 49.3643 45.8583 49.2359 45.9568C49.025 46.118 48.8815 46.418 48.7484 46.6486C48.5028 47.0733 48.2937 47.5158 48.1062 47.9705C47.7425 48.8424 47.5231 49.7518 47.4012 50.6873C47.1556 52.5764 47.4547 54.4983 48.2 56.2467C48.3706 56.6479 48.5656 57.037 48.7887 57.411C48.8403 57.5001 48.8937 57.5892 48.95 57.6754C48.9781 57.7204 49.0034 57.7617 49.0343 57.8067C49.1862 58.0317 49.3831 58.1798 49.6625 58.1864H49.6737C49.7656 58.1882 49.8593 58.1864 49.9531 58.1864H51.455H53.8924H56.8662H59.9834H62.8502H65.0627H66.2439H66.3302C66.5552 58.1817 66.7521 58.0879 66.8908 57.9098C67.0333 57.7223 67.1533 57.5142 67.2705 57.3098C67.7299 56.5111 68.088 55.6439 68.3252 54.7524C68.5642 53.857 68.6814 52.9224 68.6833 51.9943C68.6833 51.6268 68.3598 51.2743 67.9802 51.2912C67.5976 51.3137 67.2789 51.6062 67.2761 51.9999L67.2765 52Z" fill="#FF9900"/>
<path d="M48.0203 52.7032H48.5547H50.006H52.1575H54.773H57.6492H60.5414H63.2489H65.527H67.1723C67.4301 52.7032 67.6898 52.7051 67.9486 52.7032H67.9814C68.3489 52.7032 68.7014 52.3798 68.6845 52.0001C68.6676 51.6176 68.3751 51.297 67.9814 51.297H67.447H65.9957H63.8442H61.2287H58.3525H55.4603H52.7528H50.4747H48.8294C48.5716 51.297 48.3119 51.2951 48.0531 51.297H48.0203C47.6528 51.297 47.3003 51.6204 47.3172 52.0001C47.3331 52.3817 47.6266 52.7032 48.0203 52.7032Z" fill="#FF9900"/>
<path d="M58.7032 61.9797V61.4453V59.9941V57.8425V55.227V52.3508V49.4586V46.7512V44.473V42.8277C58.7032 42.5699 58.7051 42.3102 58.7032 42.0515V42.0187C58.7032 41.6512 58.3797 41.2987 58.0001 41.3155C57.6175 41.3324 57.2969 41.6249 57.2969 42.0187V42.553V44.0043V46.1558V48.7714V51.6475V54.5398V57.2472V59.5253V61.1707C57.2969 61.4285 57.2951 61.6881 57.2969 61.9469V61.9797C57.2969 62.3472 57.6204 62.6997 58.0001 62.6828C58.3816 62.6669 58.7032 62.3735 58.7032 61.9797Z" fill="#FF9900"/>
<path d="M294.266 56.0369L295.758 70.1407L298.723 67.5972L301.243 71.9623L304.568 70.0423L302.048 65.6772L305.733 64.3806L294.266 56.0369Z" fill="black"/>
<defs>
<filter id="filter0_d" x="0" y="0" width="366" height="112" filterUnits="userSpaceOnUse" color-interpolation-filters="sRGB">
<feFlood flood-opacity="0" result="BackgroundImageFix"/>
<feColorMatrix in="SourceAlpha" type="matrix" values="0 0 0 0 0 0 0 0 0 0 0 0 0 0 0 0 0 0 127 0"/>
<feOffset dy="4"/>
<feGaussianBlur stdDeviation="12"/>
<feColorMatrix type="matrix" values="0 0 0 0 0.934427 0 0 0 0 0.94899 0 0 0 0 0.970833 0 0 0 1 0"/>
<feBlend mode="normal" in2="BackgroundImageFix" result="effect1_dropShadow"/>
<feBlend mode="normal" in="SourceGraphic" in2="effect1_dropShadow" result="shape"/>
</filter>
</defs>
</svg>
