<svg width="34" height="31" viewBox="0 0 34 31" fill="none" xmlns="http://www.w3.org/2000/svg">
<path d="M16.3416 1.81806C16.6258 1.29686 17.3742 1.29686 17.6584 1.81806L18.7559 1.21957L17.6584 1.81807L21.367 8.6182C21.8345 9.47532 22.6625 10.0769 23.6221 10.2566L31.2354 11.6823C31.8189 11.7916 32.0502 12.5033 31.6424 12.9347L26.3211 18.5632C25.6503 19.2726 25.3341 20.246 25.4597 21.2141L26.4564 28.8954C26.5328 29.4842 25.9273 29.9241 25.391 29.6695L18.3937 26.3479C17.5117 25.9292 16.4883 25.9292 15.6063 26.3479L8.60897 29.6695C8.07266 29.9241 7.46719 29.4842 7.54359 28.8954L8.5403 21.2141C8.66593 20.246 8.34967 19.2726 7.67895 18.5632L2.35765 12.9347C1.94979 12.5033 2.18106 11.7916 2.76459 11.6823L10.3779 10.2566C11.3375 10.0769 12.1655 9.47532 12.633 8.6182L16.3416 1.81806L15.2441 1.21957L16.3416 1.81806Z" stroke="#C4C4C4" stroke-width="2.5"/>
</svg>
