<svg width="34" height="34" viewBox="0 0 34 34" fill="none" xmlns="http://www.w3.org/2000/svg">
<path d="M31.4043 20.6932C33.1425 18.0614 33.8683 14.8895 33.4497 11.7632C33.0311 8.63713 31.4963 5.76798 29.1272 3.68672C26.7582 1.60413 23.7168 0.449306 20.5624 0.434448C17.4467 0.438901 14.4334 1.55811 12.0702 3.58875C9.70555 5.6194 8.14705 8.42767 7.67205 11.508C7.19705 14.5882 7.83979 17.7365 9.48298 20.3844L0.7787 29.0294C0.318558 29.4925 0.318558 30.2406 0.7787 30.7037L3.2962 33.2212C3.51589 33.4454 3.81425 33.573 4.12745 33.5775C4.44511 33.576 4.74791 33.4483 4.97059 33.2212L13.6038 24.5998C15.6715 25.8853 18.057 26.5681 20.4913 26.571C20.9515 26.577 21.4116 26.5532 21.8688 26.4998C22.2384 28.4102 23.5195 30.0163 25.2992 30.8029C27.079 31.5881 29.1304 31.453 30.7898 30.4407C32.4508 29.4269 33.5092 27.6649 33.625 25.7234C33.7407 23.7819 32.8976 21.9071 31.3687 20.7047L31.4043 20.6932ZM12.9507 5.94468C14.9427 3.93185 17.6593 2.80227 20.4914 2.80968C23.1084 2.80968 25.6332 3.76857 27.5898 5.50532C29.5462 7.24203 30.7976 9.6363 31.1063 12.234C31.4165 14.8316 30.7619 17.4529 29.2672 19.601H29.1484C28.9807 19.5535 28.81 19.5179 28.6378 19.4942H28.4122H27.6759C27.3301 19.4956 26.9842 19.5268 26.6428 19.5892L26.2865 19.6842C26.0743 19.7272 25.8635 19.7821 25.6572 19.8504C25.5265 19.8504 25.3959 19.9692 25.2653 20.0285C25.1347 20.0879 24.9091 20.1829 24.7428 20.2779C24.5766 20.3729 24.5053 20.4442 24.3747 20.5273L23.9234 20.836C23.8047 20.9429 23.7097 21.0498 23.6028 21.1567L23.1991 21.5367C23.1041 21.6554 23.0209 21.786 22.9378 21.9048C22.8191 22.0488 22.7077 22.2002 22.6053 22.356V22.4154L10.386 10.1011C10.9071 8.53512 11.7843 7.1116 12.951 5.94469L12.9507 5.94468ZM4.12749 30.704L3.29624 29.8727L10.8605 22.2963L10.9555 22.3913C11.0624 22.51 11.1574 22.6288 11.2643 22.7356L11.3711 22.8188L11.7036 23.1394L4.12749 30.704ZM14.1975 22.1304C13.3336 21.4728 12.5632 20.7024 11.9056 19.8385C10.4391 17.8361 9.72063 15.3811 9.87499 12.9035L21.0968 24.1253C18.6342 24.2841 16.1955 23.5791 14.1975 22.1303V22.1304ZM27.6875 28.8754C25.7207 28.8754 24.125 27.2797 24.125 25.3129C24.1309 25.2372 24.1309 25.163 24.125 25.0873C24.1161 24.9255 24.1161 24.7622 24.125 24.6004C24.4694 22.9156 25.9671 21.7163 27.6875 21.7504C29.6543 21.7504 31.25 23.3461 31.25 25.3129C31.25 27.2797 29.6543 28.8754 27.6875 28.8754V28.8754Z" fill="#FA868A"/>
</svg>
