<svg width="44" height="46" viewBox="0 0 44 46" fill="none" xmlns="http://www.w3.org/2000/svg">
<path d="M39.951 16.04L41.4398 14.5512C42.0642 13.9268 42.0642 12.8712 41.4398 12.2L38.1286 8.88873C37.5042 8.26435 36.4486 8.26435 35.7773 8.88873L34.2886 10.3775C31.7929 8.74627 28.9596 7.68873 25.8886 7.35312V4.28188H28.5773C29.7286 4.28188 30.6417 3.37065 30.6417 2.2175C30.6398 1.0644 29.6798 0.200012 28.5755 0.200012H19.071C17.9197 0.200012 17.0066 1.11124 17.0066 2.2644C17.0066 3.41563 17.9178 4.32878 19.071 4.32878H21.7597V7.40001C18.111 7.78439 14.6087 9.2244 11.7287 11.5756C10.8643 12.2956 10.7199 13.5912 11.44 14.4556C12.16 15.32 13.4556 15.4644 14.32 14.7444C17.0556 12.5356 20.32 11.3844 23.8244 11.3844C32.1755 11.3844 38.9444 18.1533 38.9444 26.5044C38.9444 34.8554 32.1755 41.6714 23.8244 41.6714C15.6644 41.6714 8.99339 35.1425 8.70443 27.0804H10.9132C12.0176 27.0804 12.6888 25.8316 12.0644 24.9204L7.74443 18.4893C7.16882 17.6737 5.96882 17.6737 5.44005 18.4893L1.12005 24.9204C0.495666 25.8316 1.1688 27.0804 2.27128 27.0804H4.5269C4.81565 37.4493 13.3114 45.8004 23.7759 45.8004C34.3848 45.8004 43.0248 37.1604 43.0248 26.5514C43.0717 22.6645 41.9204 19.0644 39.9517 16.0404L39.951 16.04Z" fill="#282774"/>
<path d="M23.8236 38.2644C30.3036 38.2644 35.5347 32.9844 35.5347 26.5534C35.5347 20.1223 30.2547 14.8423 23.8236 14.8423C23.2949 14.8423 22.8636 15.2736 22.8636 15.8023V26.1713L14.9926 32.8913C14.8013 33.0357 14.7038 33.2757 14.657 33.5157C14.6082 33.7557 14.7057 33.9957 14.897 34.1869C17.1507 36.7763 20.368 38.2651 23.824 38.2651L23.8236 38.2644Z" fill="#282774"/>
</svg>
