<svg width="30" height="22" viewBox="0 0 30 22" fill="none" xmlns="http://www.w3.org/2000/svg">
<path d="M26.6762 1.62495C25.7474 1.41995 24.6749 1.5512 23.6662 1.93245C23.6749 1.38746 23.6724 0.853702 23.6574 0.342438H6.34383C6.32883 0.853702 6.32508 1.38618 6.33508 1.93245C5.32509 1.55245 4.25383 1.41994 3.32509 1.62495C1.95133 1.92745 1.01885 2.87119 0.700101 4.28121C0.282597 6.12121 1.20135 8.23129 3.28884 10.2236C4.93258 11.7923 7.13876 13.0974 9.46868 13.9049C10.4337 15.2661 11.6699 16.3624 13.2373 17.0286C13.0086 17.8636 12.2061 20.2824 10.2686 21.7624L14.9998 21.7599H19.7348C17.7961 20.2799 16.9936 17.861 16.7661 17.0261C18.3336 16.3599 19.5698 15.2636 20.5347 13.9024C22.8635 13.0961 25.0698 11.7911 26.7146 10.2224C28.8008 8.22988 29.7208 6.12127 29.3033 4.27999C28.9808 2.87125 28.0483 1.92748 26.6758 1.62498L26.6762 1.62495ZM4.67616 8.76735C3.16743 7.3261 2.41366 5.81609 2.66115 4.72607C2.80615 4.08233 3.15491 3.72233 3.75866 3.58857C4.55491 3.41232 5.59242 3.67982 6.44739 4.20857C6.64114 6.51606 7.09738 8.92473 7.94989 11.0623C6.7224 10.4248 5.59488 9.64482 4.67629 8.76732L4.67616 8.76735ZM25.3235 8.76735C24.4048 9.64486 23.2773 10.4249 22.0499 11.0624C22.9024 8.92486 23.3587 6.51484 23.5524 4.2086C24.4074 3.67986 25.4449 3.41359 26.2412 3.5886C26.8437 3.7211 27.1924 4.08236 27.3387 4.7261C27.5862 5.81609 26.8324 7.32611 25.3237 8.76739L25.3235 8.76735Z" fill="#FF9900"/>
</svg>
